<svg width="110" height="13" viewBox="0 0 110 13" fill="none" xmlns="http://www.w3.org/2000/svg">
<g filter="url(#filter0_d)">
<path d="M7.7959 5.88037C6.75065 5.57992 5.98893 5.21175 5.51074 4.77588C5.03678 4.33577 4.7998 3.79411 4.7998 3.15088C4.7998 2.42301 5.08968 1.8221 5.66943 1.34814C6.25342 0.869954 7.0109 0.630859 7.94189 0.630859C8.57666 0.630859 9.1416 0.753581 9.63672 0.999023C10.1361 1.24447 10.5212 1.58301 10.792 2.01465C11.0671 2.44629 11.2046 2.91813 11.2046 3.43018H9.97949C9.97949 2.87158 9.80176 2.43359 9.44629 2.11621C9.09082 1.7946 8.58936 1.63379 7.94189 1.63379C7.34098 1.63379 6.87126 1.76709 6.53271 2.03369C6.1984 2.29606 6.03125 2.66211 6.03125 3.13184C6.03125 3.50846 6.18994 3.82796 6.50732 4.09033C6.82894 4.34847 7.37272 4.58545 8.13867 4.80127C8.90885 5.01709 9.50977 5.25618 9.94141 5.51855C10.3773 5.77669 10.6989 6.07926 10.9062 6.42627C11.1178 6.77327 11.2236 7.18164 11.2236 7.65137C11.2236 8.40039 10.9316 9.0013 10.3477 9.4541C9.76367 9.90267 8.98291 10.127 8.00537 10.127C7.37061 10.127 6.77816 10.0063 6.22803 9.76514C5.6779 9.51969 5.2526 9.18538 4.95215 8.76221C4.65592 8.33903 4.50781 7.85872 4.50781 7.32129H5.73291C5.73291 7.87988 5.93815 8.3221 6.34863 8.64795C6.76335 8.96956 7.31559 9.13037 8.00537 9.13037C8.6486 9.13037 9.1416 8.99919 9.48438 8.73682C9.82715 8.47445 9.99854 8.11686 9.99854 7.66406C9.99854 7.21126 9.83984 6.86214 9.52246 6.6167C9.20508 6.36702 8.62956 6.12158 7.7959 5.88037ZM15.1401 5.70264L14.0103 6.87695V10H12.7915V0.757812H14.0103V5.32812L18.1172 0.757812H19.5898L15.9526 4.83936L19.8755 10H18.4155L15.1401 5.70264ZM22.2495 10H21.0308V0.757812H22.2495V10ZM25.709 9.00342H30.0889V10H24.4839V0.757812H25.709V9.00342ZM32.7041 9.00342H37.084V10H31.479V0.757812H32.7041V9.00342ZM38.4741 10V0.757812H41.4956C42.4985 0.757812 43.2518 0.965169 43.7554 1.37988C44.2632 1.7946 44.5171 2.4082 44.5171 3.2207C44.5171 3.65234 44.3944 4.03532 44.1489 4.36963C43.9035 4.69971 43.5692 4.95573 43.146 5.1377C43.6453 5.27734 44.0389 5.54395 44.3267 5.9375C44.6187 6.32682 44.7646 6.79232 44.7646 7.33398C44.7646 8.16341 44.4959 8.8151 43.9585 9.28906C43.4211 9.76302 42.6615 10 41.6797 10H38.4741ZM39.6929 5.67725V9.00342H41.7051C42.2721 9.00342 42.7186 8.85742 43.0444 8.56543C43.3745 8.26921 43.5396 7.86296 43.5396 7.34668C43.5396 6.23372 42.9344 5.67725 41.7241 5.67725H39.6929ZM39.6929 4.69971H41.5337C42.0669 4.69971 42.4922 4.56641 42.8096 4.2998C43.1312 4.0332 43.292 3.67139 43.292 3.21436C43.292 2.70654 43.1439 2.33838 42.8477 2.10986C42.5514 1.87712 42.1007 1.76074 41.4956 1.76074H39.6929V4.69971ZM53.6831 5.67725C53.6831 6.58285 53.5308 7.37419 53.2261 8.05127C52.9214 8.72412 52.4897 9.23828 51.9312 9.59375C51.3726 9.94922 50.7209 10.127 49.9761 10.127C49.2482 10.127 48.6029 9.94922 48.04 9.59375C47.4772 9.23405 47.0392 8.72412 46.7261 8.06396C46.4172 7.39958 46.2585 6.63151 46.25 5.75977V5.09326C46.25 4.20459 46.4045 3.4196 46.7134 2.73828C47.0223 2.05697 47.4582 1.53646 48.021 1.17676C48.5881 0.812826 49.2355 0.630859 49.9634 0.630859C50.7039 0.630859 51.3556 0.81071 51.9185 1.17041C52.4855 1.52588 52.9214 2.04427 53.2261 2.72559C53.5308 3.40267 53.6831 4.19189 53.6831 5.09326V5.67725ZM52.4707 5.08057C52.4707 3.98454 52.2507 3.14453 51.8105 2.56055C51.3704 1.97233 50.7547 1.67822 49.9634 1.67822C49.1932 1.67822 48.5859 1.97233 48.1416 2.56055C47.7015 3.14453 47.4751 3.95703 47.4624 4.99805V5.67725C47.4624 6.73942 47.6846 7.5752 48.1289 8.18457C48.5775 8.78971 49.1932 9.09229 49.9761 9.09229C50.7632 9.09229 51.3726 8.80664 51.8042 8.23535C52.2358 7.65983 52.458 6.83675 52.4707 5.76611V5.08057ZM58.3867 4.2998L60.6021 0.757812H62.0366L59.1167 5.34082L62.1064 10H60.6592L58.3867 6.39453L56.1016 10H54.6606L57.6567 5.34082L54.7305 0.757812H56.1587L58.3867 4.2998ZM85.9419 10H79.8862V9.15576L83.0854 5.60107C83.5594 5.06364 83.8853 4.62777 84.063 4.29346C84.245 3.95492 84.3359 3.60579 84.3359 3.24609C84.3359 2.76367 84.1899 2.368 83.8979 2.05908C83.606 1.75016 83.2166 1.5957 82.73 1.5957C82.146 1.5957 81.6911 1.76286 81.3652 2.09717C81.0436 2.42725 80.8828 2.88851 80.8828 3.48096H79.7085C79.7085 2.63037 79.9814 1.94271 80.5273 1.41797C81.0775 0.893229 81.8117 0.630859 82.73 0.630859C83.589 0.630859 84.2682 0.857259 84.7676 1.31006C85.2669 1.75863 85.5166 2.35742 85.5166 3.10645C85.5166 4.01628 84.9368 5.09961 83.7773 6.35645L81.3018 9.0415H85.9419V10ZM92.9814 6.05811C92.9814 7.43343 92.7466 8.4554 92.2769 9.12402C91.8071 9.79264 91.0729 10.127 90.0742 10.127C89.0882 10.127 88.3582 9.80111 87.8843 9.14941C87.4103 8.49349 87.1649 7.51595 87.1479 6.2168V4.64893C87.1479 3.29053 87.3828 2.28125 87.8525 1.62109C88.3223 0.960938 89.0586 0.630859 90.0615 0.630859C91.056 0.630859 91.7881 0.950358 92.2578 1.58936C92.7275 2.22412 92.9688 3.20589 92.9814 4.53467V6.05811ZM91.8071 4.45215C91.8071 3.45768 91.6675 2.73405 91.3882 2.28125C91.1089 1.82422 90.6667 1.5957 90.0615 1.5957C89.4606 1.5957 89.0226 1.8221 88.7476 2.2749C88.4725 2.7277 88.3307 3.42383 88.3223 4.36328V6.24219C88.3223 7.24089 88.4661 7.97933 88.7539 8.45752C89.0459 8.93148 89.486 9.16846 90.0742 9.16846C90.654 9.16846 91.0835 8.94417 91.3628 8.49561C91.6463 8.04704 91.7944 7.34033 91.8071 6.37549V4.45215ZM100.542 10H94.4858V9.15576L97.6851 5.60107C98.159 5.06364 98.4849 4.62777 98.6626 4.29346C98.8446 3.95492 98.9355 3.60579 98.9355 3.24609C98.9355 2.76367 98.7896 2.368 98.4976 2.05908C98.2056 1.75016 97.8162 1.5957 97.3296 1.5957C96.7456 1.5957 96.2907 1.76286 95.9648 2.09717C95.6432 2.42725 95.4824 2.88851 95.4824 3.48096H94.3081C94.3081 2.63037 94.5811 1.94271 95.127 1.41797C95.6771 0.893229 96.4113 0.630859 97.3296 0.630859C98.1886 0.630859 98.8678 0.857259 99.3672 1.31006C99.8665 1.75863 100.116 2.35742 100.116 3.10645C100.116 4.01628 99.5365 5.09961 98.377 6.35645L95.9014 9.0415H100.542V10ZM105.645 10H104.464V2.17334L102.097 3.04297V1.97656L105.461 0.713379H105.645V10Z" fill="#2E2B44"/>
<path d="M66.2451 5.37256C66.2451 4.51774 66.4419 3.72428 66.8354 2.99219C67.2332 2.26009 67.7812 1.68457 68.4795 1.26562C69.182 0.842448 69.9395 0.630859 70.752 0.630859C71.5645 0.630859 72.3198 0.842448 73.0181 1.26562C73.7163 1.68457 74.2622 2.26009 74.6558 2.99219C75.0535 3.72428 75.2524 4.51774 75.2524 5.37256C75.2524 6.20622 75.062 6.98698 74.6812 7.71484C74.3003 8.44271 73.7586 9.02881 73.0562 9.47314C72.3579 9.91325 71.5898 10.1333 70.752 10.1333C69.9183 10.1333 69.1502 9.91536 68.4478 9.47949C67.7495 9.03939 67.2078 8.4554 66.8228 7.72754C66.4377 6.99967 66.2451 6.21468 66.2451 5.37256ZM66.9751 5.37256C66.9751 6.10042 67.1444 6.77539 67.4829 7.39746C67.8215 8.0153 68.2806 8.49984 68.8604 8.85107C69.4443 9.20231 70.0749 9.37793 70.752 9.37793C71.4333 9.37793 72.0659 9.2002 72.6499 8.84473C73.2339 8.48503 73.6909 7.99837 74.021 7.38477C74.3553 6.77116 74.5225 6.10042 74.5225 5.37256C74.5225 4.64893 74.3553 3.98242 74.021 3.37305C73.6909 2.75944 73.2339 2.27702 72.6499 1.92578C72.0659 1.57031 71.4333 1.39258 70.752 1.39258C70.0749 1.39258 69.4443 1.5682 68.8604 1.91943C68.2764 2.26644 67.8151 2.74886 67.4766 3.3667C67.1423 3.98454 66.9751 4.65316 66.9751 5.37256ZM69.8188 5.84863V7.99414H68.9238V2.60498H70.6758C71.3232 2.60498 71.8247 2.74463 72.1802 3.02393C72.5399 3.29899 72.7197 3.70101 72.7197 4.22998C72.7197 4.75049 72.4489 5.14827 71.9072 5.42334C72.4235 5.63493 72.6838 6.06657 72.688 6.71826V7.10547C72.688 7.4694 72.724 7.73177 72.7959 7.89258V7.99414H71.8755C71.8162 7.8418 71.7866 7.57096 71.7866 7.18164C71.7866 6.78809 71.7803 6.55534 71.7676 6.4834C71.6999 6.07715 71.4227 5.86556 70.936 5.84863H69.8188ZM69.8188 5.03613H70.8091C71.1138 5.02767 71.3592 4.95361 71.5454 4.81396C71.7316 4.67432 71.8247 4.49023 71.8247 4.26172C71.8247 3.9528 71.7422 3.73486 71.5771 3.60791C71.4121 3.47673 71.118 3.41113 70.6948 3.41113H69.8188V5.03613Z" fill="#3F2AFF"/>
</g>
<defs>
<filter id="filter0_d" x="0.507812" y="0.630859" width="109.137" height="17.5024" filterUnits="userSpaceOnUse" color-interpolation-filters="sRGB">
<feFlood flood-opacity="0" result="BackgroundImageFix"/>
<feColorMatrix in="SourceAlpha" type="matrix" values="0 0 0 0 0 0 0 0 0 0 0 0 0 0 0 0 0 0 127 0" result="hardAlpha"/>
<feOffset dy="4"/>
<feGaussianBlur stdDeviation="2"/>
<feComposite in2="hardAlpha" operator="out"/>
<feColorMatrix type="matrix" values="0 0 0 0 0 0 0 0 0 0 0 0 0 0 0 0 0 0 0.25 0"/>
<feBlend mode="normal" in2="BackgroundImageFix" result="effect1_dropShadow"/>
<feBlend mode="normal" in="SourceGraphic" in2="effect1_dropShadow" result="shape"/>
</filter>
</defs>
</svg>
